<svg width="45" height="57" fill="none" xmlns="http://www.w3.org/2000/svg"><path d="M22.02 5.742c-.29 0-.57-.044-.835-.126v3.98h1.67v-3.98a2.802 2.802 0 01-.835.126z" fill="#135693"/><path d="M22.02 5.854a2.927 2.927 0 100-5.854 2.927 2.927 0 000 5.854z" fill="#6BC1DD"/><path opacity=".15" d="M21.557 2.927c0-1.176.694-2.19 1.695-2.655a2.927 2.927 0 100 5.31 2.926 2.926 0 01-1.695-2.655z" fill="#440075"/><path d="M40.676 14.164H38.95v15.922h1.726c.946 0 1.72-.774 1.72-1.72V15.883c0-.946-.774-1.72-1.72-1.72zm-35.586 0H3.25c-.946 0-1.72.774-1.72 1.72v12.482c0 .946.774 1.72 1.72 1.72h1.84V14.164z" fill="#9EA7AF"/><path d="M6.263 50.916H3.9a3.88 3.88 0 01-2.179-.665v5.602A1.15 1.15 0 002.868 57h3.396v-6.084zm33.878 0h-2.364V57h3.396a1.15 1.15 0 001.147-1.147v-5.602a3.883 3.883 0 01-2.179.665z" fill="#C5CCD3"/><path opacity=".15" d="M4.129 55.853v-4.937h-.23a3.881 3.881 0 01-2.179-.665v5.602c0 .63.516 1.147 1.147 1.147h2.409a1.15 1.15 0 01-1.147-1.147z" fill="#440075"/><path d="M6.264 42.149H3.899A3.9 3.9 0 000 46.049v1.146a3.9 3.9 0 003.9 3.9h2.363v-8.946zm33.877-.001h-2.364v8.945h2.364a3.9 3.9 0 003.9-3.899v-1.147a3.9 3.9 0 00-3.9-3.9z" fill="#E6E9ED"/><path opacity=".15" d="M2.753 47.194v-1.147a3.9 3.9 0 013.899-3.9H3.899A3.9 3.9 0 000 46.048v1.147a3.9 3.9 0 003.9 3.9h2.752a3.9 3.9 0 01-3.9-3.9z" fill="#440075"/><path d="M25.828 34.517h-7.614v2.845h7.614v-2.845z" fill="#9EA7AF"/><path opacity=".15" d="M20.988 34.517h-2.774v2.845h2.774v-2.845z" fill="#440075"/><path d="M30.976 40.078v-1.85a.992.992 0 00-.989-.99H13.72a.992.992 0 00-.99.99v1.85h18.246z" fill="#C5CCD3"/><path opacity=".15" d="M16.16 40.078v-1.85c0-.545.446-.99.99-.99h-3.43a.992.992 0 00-.99.99v1.85h3.43z" fill="#440075"/><path d="M36.168 39.883H7.873c-.947 0-1.72.774-1.72 1.72V57h31.735V41.603c0-.946-.774-1.72-1.72-1.72z" fill="#9EA7AF"/><path opacity=".15" d="M11.158 39.883H7.873c-.947 0-1.72.774-1.72 1.72V57h3.284V41.603c0-.946.774-1.72 1.72-1.72z" fill="#440075"/><path d="M39.061 32.93c0 .946-.774 1.72-1.72 1.72H6.7c-.946 0-1.72-.774-1.72-1.72V11.204c0-.947.774-1.72 1.72-1.72h30.642c.946 0 1.72.773 1.72 1.72v21.724z" fill="#C5CCD3"/><path opacity=".15" d="M8.258 32.93V11.204c0-.947.774-1.72 1.72-1.72H6.699c-.946 0-1.72.773-1.72 1.72v21.724c0 .947.774 1.72 1.72 1.72h3.279c-.946 0-1.72-.773-1.72-1.72z" fill="#440075"/><path d="M34.99 22.1a5.942 5.942 0 01-5.942 5.941H14.992a5.942 5.942 0 110-11.883h14.056a5.942 5.942 0 015.942 5.941z" fill="#135693"/><path opacity=".15" d="M12.386 22.1a5.942 5.942 0 015.942-5.942h-3.336a5.942 5.942 0 100 11.883h3.336a5.942 5.942 0 01-5.942-5.942z" fill="#440075"/><path d="M14.399 24.42a2.315 2.315 0 002.31-2.32 2.315 2.315 0 00-2.31-2.32 2.315 2.315 0 00-2.31 2.32 2.315 2.315 0 002.31 2.32zm15.287 0a2.315 2.315 0 002.31-2.32 2.315 2.315 0 00-2.31-2.32 2.315 2.315 0 00-2.31 2.32 2.315 2.315 0 002.31 2.32z" fill="#6BC1DD"/><path d="M32.27 57v-9.998a1.15 1.15 0 00-1.147-1.147H12.917a1.15 1.15 0 00-1.147 1.147V57h20.5z" fill="#135693"/><path d="M24.084 57v-3.225a.345.345 0 00-.343-.344H20.3a.345.345 0 00-.344.344V57h4.128z" fill="#FFC502"/><path d="M17.203 49.444h-2.637a.835.835 0 110-1.67h2.637a.835.835 0 110 1.67zm-1.147 2.039h-1.49a.835.835 0 110-1.67h1.49a.835.835 0 110 1.67zm1.147 2.038h-2.638a.835.835 0 010-1.67h2.638a.835.835 0 110 1.67zm-1.491 2.039h-1.147a.835.835 0 110-1.67h1.147a.835.835 0 010 1.67z" fill="#C5CCD3"/><path d="M29.096 54.72H27.06a.875.875 0 010-1.748h2.036a.875.875 0 110 1.749z" fill="#E6E9ED"/><path d="M28.079 51.69a1.837 1.837 0 100-3.674 1.837 1.837 0 000 3.674z" fill="#5DC647"/><path d="M24.135 50.813a.353.353 0 01-.352.353h-3.526a.353.353 0 01-.352-.353v-1.922c0-.194.159-.352.352-.352h3.526c.194 0 .352.158.352.352v1.922z" fill="#6BC1DD"/></svg>